<mxfile host="app.diagrams.net" modified="2023-11-02T13:20:16.225Z" agent="Mozilla/5.0 (Windows NT 10.0; Win64; x64) AppleWebKit/537.36 (KHTML, like Gecko) Chrome/118.0.0.0 Safari/537.36" etag="rQ8r8Lph6txZ-g1qOQye" version="22.0.8" type="device">
  <diagram name="第 1 页" id="7wJ1GPNHzhUSzpBrtlll">
    <mxGraphModel dx="611" dy="969" grid="0" gridSize="10" guides="1" tooltips="1" connect="1" arrows="1" fold="1" page="1" pageScale="1" pageWidth="4681" pageHeight="3300" math="0" shadow="0">
      <root>
        <mxCell id="0" />
        <mxCell id="1" parent="0" />
        <mxCell id="9n2RkiRKGLW2JT2aB-Pe-3" value="" style="shape=table;startSize=0;container=1;collapsible=0;childLayout=tableLayout;fontSize=16;strokeWidth=1;fillColor=#fff2cc;strokeColor=#FF0000;swimlaneLine=1;gradientDirection=north;" vertex="1" parent="1">
          <mxGeometry x="924.636319247159" y="664.4545343572443" width="110" height="250" as="geometry" />
        </mxCell>
        <mxCell id="9n2RkiRKGLW2JT2aB-Pe-4" value="" style="shape=tableRow;horizontal=0;startSize=0;swimlaneHead=0;swimlaneBody=0;strokeColor=#FF0000;top=0;left=0;bottom=0;right=0;collapsible=0;dropTarget=0;fillColor=none;points=[[0,0.5],[1,0.5]];portConstraint=eastwest;fontSize=16;strokeWidth=1;swimlaneLine=1;gradientColor=none;gradientDirection=north;" vertex="1" parent="9n2RkiRKGLW2JT2aB-Pe-3">
          <mxGeometry width="110" height="30" as="geometry" />
        </mxCell>
        <mxCell id="9n2RkiRKGLW2JT2aB-Pe-5" value="operator" style="shape=partialRectangle;html=1;whiteSpace=wrap;connectable=0;strokeColor=#FF0000;overflow=hidden;fillColor=none;top=0;left=0;bottom=0;right=0;pointerEvents=1;fontSize=16;strokeWidth=1;swimlaneLine=1;gradientColor=none;gradientDirection=north;startSize=0;" vertex="1" parent="9n2RkiRKGLW2JT2aB-Pe-4">
          <mxGeometry width="110" height="30" as="geometry">
            <mxRectangle width="110" height="30" as="alternateBounds" />
          </mxGeometry>
        </mxCell>
        <mxCell id="9n2RkiRKGLW2JT2aB-Pe-6" value="" style="shape=tableRow;horizontal=0;startSize=0;swimlaneHead=0;swimlaneBody=0;strokeColor=#FF0000;top=0;left=0;bottom=0;right=0;collapsible=0;dropTarget=0;fillColor=none;points=[[0,0.5],[1,0.5]];portConstraint=eastwest;fontSize=16;strokeWidth=1;swimlaneLine=1;gradientColor=none;gradientDirection=north;" vertex="1" parent="9n2RkiRKGLW2JT2aB-Pe-3">
          <mxGeometry y="30" width="110" height="70" as="geometry" />
        </mxCell>
        <mxCell id="9n2RkiRKGLW2JT2aB-Pe-7" value="&lt;span style=&quot;font-size: 14px; background-color: initial;&quot;&gt;userID:int&lt;/span&gt;&lt;br&gt;&lt;span style=&quot;font-size: 14px; background-color: initial;&quot;&gt;password:int&lt;/span&gt;&lt;br&gt;&lt;span style=&quot;font-size: 14px; background-color: initial;&quot;&gt;UserName:string&lt;/span&gt;" style="shape=partialRectangle;html=1;whiteSpace=wrap;connectable=0;strokeColor=#FF0000;overflow=hidden;fillColor=none;top=0;left=0;bottom=0;right=0;pointerEvents=1;fontSize=16;strokeWidth=1;swimlaneLine=1;gradientColor=none;gradientDirection=north;startSize=0;align=left;" vertex="1" parent="9n2RkiRKGLW2JT2aB-Pe-6">
          <mxGeometry width="110" height="70" as="geometry">
            <mxRectangle width="110" height="70" as="alternateBounds" />
          </mxGeometry>
        </mxCell>
        <mxCell id="9n2RkiRKGLW2JT2aB-Pe-8" value="" style="shape=tableRow;horizontal=0;startSize=0;swimlaneHead=0;swimlaneBody=0;strokeColor=#FF0000;top=0;left=0;bottom=0;right=0;collapsible=0;dropTarget=0;fillColor=none;points=[[0,0.5],[1,0.5]];portConstraint=eastwest;fontSize=16;strokeWidth=1;swimlaneLine=1;gradientColor=none;gradientDirection=north;" vertex="1" parent="9n2RkiRKGLW2JT2aB-Pe-3">
          <mxGeometry y="100" width="110" height="150" as="geometry" />
        </mxCell>
        <mxCell id="9n2RkiRKGLW2JT2aB-Pe-9" value="line()&lt;br&gt;outline()&lt;br&gt;register()&lt;br&gt;recharge()&lt;br&gt;cancelcard()&lt;br&gt;modify()&lt;br&gt;select()" style="shape=partialRectangle;html=1;whiteSpace=wrap;connectable=0;strokeColor=#FF0000;overflow=hidden;fillColor=none;top=0;left=0;bottom=0;right=0;pointerEvents=1;fontSize=16;strokeWidth=1;swimlaneLine=1;gradientColor=none;gradientDirection=north;startSize=0;align=left;" vertex="1" parent="9n2RkiRKGLW2JT2aB-Pe-8">
          <mxGeometry width="110" height="150" as="geometry">
            <mxRectangle width="110" height="150" as="alternateBounds" />
          </mxGeometry>
        </mxCell>
        <mxCell id="9n2RkiRKGLW2JT2aB-Pe-10" value="" style="endArrow=block;html=1;rounded=0;endFill=0;exitX=1;exitY=0.227;exitDx=0;exitDy=0;exitPerimeter=0;entryX=0.025;entryY=0.244;entryDx=0;entryDy=0;entryPerimeter=0;strokeColor=#f50505;endSize=12;" edge="1" parent="1" source="9n2RkiRKGLW2JT2aB-Pe-8" target="9n2RkiRKGLW2JT2aB-Pe-16">
          <mxGeometry width="50" height="50" relative="1" as="geometry">
            <mxPoint x="1214.636319247159" y="864.4545343572443" as="sourcePoint" />
            <mxPoint x="1334.636319247159" y="954.4545343572443" as="targetPoint" />
          </mxGeometry>
        </mxCell>
        <mxCell id="9n2RkiRKGLW2JT2aB-Pe-11" value="" style="shape=table;startSize=0;container=1;collapsible=0;childLayout=tableLayout;fontSize=16;fillColor=#fff2cc;strokeColor=#FF0000;" vertex="1" parent="1">
          <mxGeometry x="1418.136319247159" y="689.4545343572443" width="120" height="360" as="geometry" />
        </mxCell>
        <mxCell id="9n2RkiRKGLW2JT2aB-Pe-12" value="" style="shape=tableRow;horizontal=0;startSize=0;swimlaneHead=0;swimlaneBody=0;strokeColor=inherit;top=0;left=0;bottom=0;right=0;collapsible=0;dropTarget=0;fillColor=none;points=[[0,0.5],[1,0.5]];portConstraint=eastwest;fontSize=16;" vertex="1" parent="9n2RkiRKGLW2JT2aB-Pe-11">
          <mxGeometry width="120" height="30" as="geometry" />
        </mxCell>
        <mxCell id="9n2RkiRKGLW2JT2aB-Pe-13" value="worker" style="shape=partialRectangle;html=1;whiteSpace=wrap;connectable=0;strokeColor=inherit;overflow=hidden;fillColor=none;top=0;left=0;bottom=0;right=0;pointerEvents=1;fontSize=16;" vertex="1" parent="9n2RkiRKGLW2JT2aB-Pe-12">
          <mxGeometry width="120" height="30" as="geometry">
            <mxRectangle width="120" height="30" as="alternateBounds" />
          </mxGeometry>
        </mxCell>
        <mxCell id="9n2RkiRKGLW2JT2aB-Pe-14" value="" style="shape=tableRow;horizontal=0;startSize=0;swimlaneHead=0;swimlaneBody=0;strokeColor=inherit;top=0;left=0;bottom=0;right=0;collapsible=0;dropTarget=0;fillColor=none;points=[[0,0.5],[1,0.5]];portConstraint=eastwest;fontSize=16;" vertex="1" parent="9n2RkiRKGLW2JT2aB-Pe-11">
          <mxGeometry y="30" width="120" height="80" as="geometry" />
        </mxCell>
        <mxCell id="9n2RkiRKGLW2JT2aB-Pe-15" value="&lt;blockquote style=&quot;margin: 0 0 0 40px; border: none; padding: 0px;&quot;&gt;&lt;/blockquote&gt;&lt;span style=&quot;font-size: 15px; background-color: initial;&quot;&gt;userID:int&lt;/span&gt;&lt;br&gt;&lt;blockquote style=&quot;margin: 0 0 0 40px; border: none; padding: 0px;&quot;&gt;&lt;/blockquote&gt;&lt;span style=&quot;font-size: 15px; background-color: initial;&quot;&gt;password:int&lt;/span&gt;&lt;br&gt;&lt;blockquote style=&quot;margin: 0 0 0 40px; border: none; padding: 0px;&quot;&gt;&lt;/blockquote&gt;&lt;span style=&quot;font-size: 15px; background-color: initial;&quot;&gt;level:string&lt;/span&gt;&lt;br&gt;&lt;font style=&quot;font-size: 15px;&quot;&gt;UIserName:string&lt;/font&gt;" style="shape=partialRectangle;html=1;whiteSpace=wrap;connectable=0;strokeColor=inherit;overflow=hidden;fillColor=none;top=0;left=0;bottom=0;right=0;pointerEvents=1;fontSize=16;align=left;" vertex="1" parent="9n2RkiRKGLW2JT2aB-Pe-14">
          <mxGeometry width="120" height="80" as="geometry">
            <mxRectangle width="120" height="80" as="alternateBounds" />
          </mxGeometry>
        </mxCell>
        <mxCell id="9n2RkiRKGLW2JT2aB-Pe-16" value="" style="shape=tableRow;horizontal=0;startSize=0;swimlaneHead=0;swimlaneBody=0;strokeColor=inherit;top=0;left=0;bottom=0;right=0;collapsible=0;dropTarget=0;fillColor=none;points=[[0,0.5],[1,0.5]];portConstraint=eastwest;fontSize=16;" vertex="1" parent="9n2RkiRKGLW2JT2aB-Pe-11">
          <mxGeometry y="110" width="120" height="250" as="geometry" />
        </mxCell>
        <mxCell id="9n2RkiRKGLW2JT2aB-Pe-17" value="line()&lt;br&gt;outline()&lt;br&gt;cancelcard()&lt;br&gt;add()&lt;br&gt;delete()&lt;br&gt;modify()&lt;br&gt;select()&lt;br&gt;exit()&lt;br&gt;register()&lt;br&gt;recharge()&lt;br&gt;account()&lt;br&gt;print()" style="shape=partialRectangle;html=1;whiteSpace=wrap;connectable=0;strokeColor=inherit;overflow=hidden;fillColor=none;top=0;left=0;bottom=0;right=0;pointerEvents=1;fontSize=16;align=left;" vertex="1" parent="9n2RkiRKGLW2JT2aB-Pe-16">
          <mxGeometry width="120" height="250" as="geometry">
            <mxRectangle width="120" height="250" as="alternateBounds" />
          </mxGeometry>
        </mxCell>
        <mxCell id="9n2RkiRKGLW2JT2aB-Pe-18" value="" style="shape=table;startSize=0;container=1;collapsible=0;childLayout=tableLayout;fontSize=16;fillColor=#fff2cc;strokeColor=#FF0000;strokeWidth=2;swimlaneLine=1;shadow=0;left=1;bottom=1;" vertex="1" parent="1">
          <mxGeometry x="1124.636319247159" y="424.45453435724426" width="120" height="370" as="geometry" />
        </mxCell>
        <mxCell id="9n2RkiRKGLW2JT2aB-Pe-19" value="" style="shape=tableRow;horizontal=0;startSize=0;swimlaneHead=0;swimlaneBody=0;strokeColor=#FF0000;top=0;left=1;bottom=1;right=0;collapsible=0;dropTarget=0;fillColor=#fff2cc;points=[[0,0.5],[1,0.5]];portConstraint=eastwest;fontSize=16;strokeWidth=2;swimlaneLine=1;shadow=0;" vertex="1" parent="9n2RkiRKGLW2JT2aB-Pe-18">
          <mxGeometry width="120" height="30" as="geometry" />
        </mxCell>
        <mxCell id="9n2RkiRKGLW2JT2aB-Pe-20" value="Administrator" style="shape=partialRectangle;html=1;whiteSpace=wrap;connectable=0;strokeColor=#FF0000;overflow=hidden;fillColor=#fff2cc;top=0;left=1;bottom=1;right=0;pointerEvents=1;fontSize=16;strokeWidth=2;swimlaneLine=1;startSize=0;shadow=0;" vertex="1" parent="9n2RkiRKGLW2JT2aB-Pe-19">
          <mxGeometry width="120" height="30" as="geometry">
            <mxRectangle width="120" height="30" as="alternateBounds" />
          </mxGeometry>
        </mxCell>
        <mxCell id="9n2RkiRKGLW2JT2aB-Pe-21" value="" style="shape=tableRow;horizontal=0;startSize=0;swimlaneHead=0;swimlaneBody=0;strokeColor=#FF0000;top=0;left=1;bottom=1;right=0;collapsible=0;dropTarget=0;fillColor=#fff2cc;points=[[0,0.5],[1,0.5]];portConstraint=eastwest;fontSize=16;strokeWidth=2;swimlaneLine=1;shadow=0;" vertex="1" parent="9n2RkiRKGLW2JT2aB-Pe-18">
          <mxGeometry y="30" width="120" height="70" as="geometry" />
        </mxCell>
        <mxCell id="9n2RkiRKGLW2JT2aB-Pe-22" value="&lt;font style=&quot;font-size: 14px;&quot;&gt;userID:int&lt;br style=&quot;border-color: var(--border-color);&quot;&gt;password:int&lt;br style=&quot;border-color: var(--border-color);&quot;&gt;UserName:string&lt;/font&gt;" style="shape=partialRectangle;html=1;whiteSpace=wrap;connectable=0;strokeColor=#FF0000;overflow=hidden;fillColor=#fff2cc;top=0;left=1;bottom=1;right=0;pointerEvents=1;fontSize=16;strokeWidth=2;swimlaneLine=1;startSize=0;shadow=0;" vertex="1" parent="9n2RkiRKGLW2JT2aB-Pe-21">
          <mxGeometry width="120" height="70" as="geometry">
            <mxRectangle width="120" height="70" as="alternateBounds" />
          </mxGeometry>
        </mxCell>
        <mxCell id="9n2RkiRKGLW2JT2aB-Pe-23" value="" style="shape=tableRow;horizontal=0;startSize=0;swimlaneHead=0;swimlaneBody=0;strokeColor=#FF0000;top=0;left=1;bottom=1;right=0;collapsible=0;dropTarget=0;fillColor=#fff2cc;points=[[0,0.5],[1,0.5]];portConstraint=eastwest;fontSize=16;strokeWidth=2;swimlaneLine=1;shadow=0;" vertex="1" parent="9n2RkiRKGLW2JT2aB-Pe-18">
          <mxGeometry y="100" width="120" height="270" as="geometry" />
        </mxCell>
        <mxCell id="9n2RkiRKGLW2JT2aB-Pe-24" value="line()&lt;br style=&quot;border-color: var(--border-color);&quot;&gt;outline()&lt;br style=&quot;border-color: var(--border-color);&quot;&gt;cancelcard()&lt;br style=&quot;border-color: var(--border-color);&quot;&gt;add()&lt;br style=&quot;border-color: var(--border-color);&quot;&gt;delete()&lt;br style=&quot;border-color: var(--border-color);&quot;&gt;modify()&lt;br style=&quot;border-color: var(--border-color);&quot;&gt;select()&lt;br style=&quot;border-color: var(--border-color);&quot;&gt;exit()&lt;br style=&quot;border-color: var(--border-color);&quot;&gt;register()&lt;br style=&quot;border-color: var(--border-color);&quot;&gt;recharge()&lt;br style=&quot;border-color: var(--border-color);&quot;&gt;account()&lt;br style=&quot;border-color: var(--border-color);&quot;&gt;print()" style="shape=partialRectangle;html=1;whiteSpace=wrap;connectable=0;strokeColor=#FF0000;overflow=hidden;fillColor=#fff2cc;top=0;left=1;bottom=1;right=0;pointerEvents=1;fontSize=16;strokeWidth=2;swimlaneLine=1;startSize=0;shadow=0;align=left;" vertex="1" parent="9n2RkiRKGLW2JT2aB-Pe-23">
          <mxGeometry width="120" height="270" as="geometry">
            <mxRectangle width="120" height="270" as="alternateBounds" />
          </mxGeometry>
        </mxCell>
        <mxCell id="9n2RkiRKGLW2JT2aB-Pe-25" value="" style="endArrow=block;html=1;rounded=0;endFill=0;exitX=1;exitY=0.5;exitDx=0;exitDy=0;strokeColor=#ff0000;endSize=12;entryX=-0.004;entryY=0.14;entryDx=0;entryDy=0;entryPerimeter=0;" edge="1" parent="1" source="9n2RkiRKGLW2JT2aB-Pe-18" target="9n2RkiRKGLW2JT2aB-Pe-16">
          <mxGeometry width="50" height="50" relative="1" as="geometry">
            <mxPoint x="1574.636319247159" y="754.4545343572443" as="sourcePoint" />
            <mxPoint x="1414.636319247159" y="804.4545343572443" as="targetPoint" />
          </mxGeometry>
        </mxCell>
        <mxCell id="9n2RkiRKGLW2JT2aB-Pe-26" value="" style="shape=table;startSize=0;container=1;collapsible=0;childLayout=tableLayout;fontSize=16;fillColor=#fff2cc;strokeColor=#FF0000;strokeWidth=2;right=1;left=1;bottom=1;" vertex="1" parent="1">
          <mxGeometry x="1074.636319247159" y="894.4545343572443" width="130" height="260" as="geometry" />
        </mxCell>
        <mxCell id="9n2RkiRKGLW2JT2aB-Pe-27" value="" style="shape=tableRow;horizontal=0;startSize=0;swimlaneHead=0;swimlaneBody=0;strokeColor=#FF0000;top=0;left=1;bottom=1;right=1;collapsible=0;dropTarget=0;fillColor=#fff2cc;points=[[0,0.5],[1,0.5]];portConstraint=eastwest;fontSize=16;strokeWidth=2;" vertex="1" parent="9n2RkiRKGLW2JT2aB-Pe-26">
          <mxGeometry width="130" height="40" as="geometry" />
        </mxCell>
        <mxCell id="9n2RkiRKGLW2JT2aB-Pe-28" value="GeneraUser" style="shape=partialRectangle;html=1;whiteSpace=wrap;connectable=0;strokeColor=#FF0000;overflow=hidden;fillColor=#fff2cc;top=0;left=1;bottom=1;right=1;pointerEvents=1;fontSize=16;strokeWidth=2;" vertex="1" parent="9n2RkiRKGLW2JT2aB-Pe-27">
          <mxGeometry width="130" height="40" as="geometry">
            <mxRectangle width="130" height="40" as="alternateBounds" />
          </mxGeometry>
        </mxCell>
        <mxCell id="9n2RkiRKGLW2JT2aB-Pe-29" value="" style="shape=tableRow;horizontal=0;startSize=0;swimlaneHead=0;swimlaneBody=0;strokeColor=#FF0000;top=0;left=1;bottom=1;right=1;collapsible=0;dropTarget=0;fillColor=#fff2cc;points=[[0,0.5],[1,0.5]];portConstraint=eastwest;fontSize=16;strokeWidth=2;" vertex="1" parent="9n2RkiRKGLW2JT2aB-Pe-26">
          <mxGeometry y="40" width="130" height="80" as="geometry" />
        </mxCell>
        <mxCell id="9n2RkiRKGLW2JT2aB-Pe-30" value="userID:int&lt;br style=&quot;border-color: var(--border-color); font-size: 14px;&quot;&gt;&lt;span style=&quot;font-size: 14px;&quot;&gt;password:int&lt;/span&gt;&lt;br style=&quot;border-color: var(--border-color); font-size: 14px;&quot;&gt;&lt;span style=&quot;font-size: 14px;&quot;&gt;UserName:string&lt;/span&gt;" style="shape=partialRectangle;html=1;whiteSpace=wrap;connectable=0;strokeColor=#FF0000;overflow=hidden;fillColor=#fff2cc;top=0;left=1;bottom=1;right=1;pointerEvents=1;fontSize=16;strokeWidth=2;align=left;" vertex="1" parent="9n2RkiRKGLW2JT2aB-Pe-29">
          <mxGeometry width="130" height="80" as="geometry">
            <mxRectangle width="130" height="80" as="alternateBounds" />
          </mxGeometry>
        </mxCell>
        <mxCell id="9n2RkiRKGLW2JT2aB-Pe-31" value="" style="shape=tableRow;horizontal=0;startSize=0;swimlaneHead=0;swimlaneBody=0;strokeColor=#FF0000;top=0;left=1;bottom=1;right=1;collapsible=0;dropTarget=0;fillColor=#fff2cc;points=[[0,0.5],[1,0.5]];portConstraint=eastwest;fontSize=16;strokeWidth=2;" vertex="1" parent="9n2RkiRKGLW2JT2aB-Pe-26">
          <mxGeometry y="120" width="130" height="140" as="geometry" />
        </mxCell>
        <mxCell id="9n2RkiRKGLW2JT2aB-Pe-32" value="line()&lt;br&gt;outline()&lt;br&gt;select()&lt;br&gt;modify()&lt;br&gt;exit()" style="shape=partialRectangle;html=1;whiteSpace=wrap;connectable=0;strokeColor=#FF0000;overflow=hidden;fillColor=#fff2cc;top=0;left=1;bottom=1;right=1;pointerEvents=1;fontSize=16;strokeWidth=2;align=left;" vertex="1" parent="9n2RkiRKGLW2JT2aB-Pe-31">
          <mxGeometry width="130" height="140" as="geometry">
            <mxRectangle width="130" height="140" as="alternateBounds" />
          </mxGeometry>
        </mxCell>
        <mxCell id="9n2RkiRKGLW2JT2aB-Pe-33" value="" style="endArrow=block;html=1;rounded=0;endFill=0;strokeColor=#ff0000;entryX=0;entryY=0.5;entryDx=0;entryDy=0;endSize=12;" edge="1" parent="1" source="9n2RkiRKGLW2JT2aB-Pe-29" target="9n2RkiRKGLW2JT2aB-Pe-16">
          <mxGeometry width="50" height="50" relative="1" as="geometry">
            <mxPoint x="1354.636319247159" y="1064.4545343572443" as="sourcePoint" />
            <mxPoint x="1404.636319247159" y="1014.4545343572443" as="targetPoint" />
          </mxGeometry>
        </mxCell>
        <mxCell id="9n2RkiRKGLW2JT2aB-Pe-34" value="" style="rounded=0;whiteSpace=wrap;html=1;fillColor=#fff2cc;strokeColor=#ff0000;" vertex="1" parent="1">
          <mxGeometry x="1423.136319247159" y="524.4545343572443" width="50" height="20" as="geometry" />
        </mxCell>
        <mxCell id="9n2RkiRKGLW2JT2aB-Pe-35" value="&lt;font style=&quot;font-size: 14px;&quot;&gt;WorkerRecords&lt;br&gt;&lt;br&gt;&lt;br&gt;&lt;/font&gt;" style="rounded=0;whiteSpace=wrap;html=1;align=left;fillColor=#fff2cc;strokeColor=#ff0000;" vertex="1" parent="1">
          <mxGeometry x="1423.136319247159" y="544.4545343572443" width="110" height="60" as="geometry" />
        </mxCell>
        <mxCell id="9n2RkiRKGLW2JT2aB-Pe-36" value="" style="endArrow=openThin;html=1;rounded=0;exitX=0.5;exitY=1;exitDx=0;exitDy=0;entryX=0.504;entryY=-0.033;entryDx=0;entryDy=0;entryPerimeter=0;endFill=0;dashed=1;strokeColor=#ff0000;endSize=9;" edge="1" parent="1" source="9n2RkiRKGLW2JT2aB-Pe-35" target="9n2RkiRKGLW2JT2aB-Pe-12">
          <mxGeometry width="50" height="50" relative="1" as="geometry">
            <mxPoint x="1504.636319247159" y="564.4545343572443" as="sourcePoint" />
            <mxPoint x="1514.636319247159" y="654.4545343572443" as="targetPoint" />
          </mxGeometry>
        </mxCell>
        <mxCell id="9n2RkiRKGLW2JT2aB-Pe-37" value="" style="shape=table;startSize=0;container=1;collapsible=0;childLayout=tableLayout;fontSize=16;fillColor=#fff2cc;strokeColor=#ff0000;bottom=1;left=1;strokeWidth=2;" vertex="1" parent="1">
          <mxGeometry x="1644.636319247159" y="499.45453435724426" width="150" height="190" as="geometry" />
        </mxCell>
        <mxCell id="9n2RkiRKGLW2JT2aB-Pe-38" value="" style="shape=tableRow;horizontal=0;startSize=0;swimlaneHead=0;swimlaneBody=0;strokeColor=#ff0000;top=0;left=1;bottom=1;right=0;collapsible=0;dropTarget=0;fillColor=#fff2cc;points=[[0,0.5],[1,0.5]];portConstraint=eastwest;fontSize=16;strokeWidth=2;" vertex="1" parent="9n2RkiRKGLW2JT2aB-Pe-37">
          <mxGeometry width="150" height="25" as="geometry" />
        </mxCell>
        <mxCell id="9n2RkiRKGLW2JT2aB-Pe-39" value="student" style="shape=partialRectangle;html=1;whiteSpace=wrap;connectable=0;strokeColor=#ff0000;overflow=hidden;fillColor=#fff2cc;top=0;left=1;bottom=1;right=0;pointerEvents=1;fontSize=16;strokeWidth=2;" vertex="1" parent="9n2RkiRKGLW2JT2aB-Pe-38">
          <mxGeometry width="150" height="25" as="geometry">
            <mxRectangle width="150" height="25" as="alternateBounds" />
          </mxGeometry>
        </mxCell>
        <mxCell id="9n2RkiRKGLW2JT2aB-Pe-40" value="" style="shape=tableRow;horizontal=0;startSize=0;swimlaneHead=0;swimlaneBody=0;strokeColor=#ff0000;top=0;left=1;bottom=1;right=0;collapsible=0;dropTarget=0;fillColor=#fff2cc;points=[[0,0.5],[1,0.5]];portConstraint=eastwest;fontSize=16;strokeWidth=2;" vertex="1" parent="9n2RkiRKGLW2JT2aB-Pe-37">
          <mxGeometry y="25" width="150" height="145" as="geometry" />
        </mxCell>
        <mxCell id="9n2RkiRKGLW2JT2aB-Pe-41" value="cradno:int&lt;br&gt;studentno:int&lt;br&gt;studentname:string&lt;br&gt;sex:string&lt;br&gt;department:istring&lt;br&gt;grade:string&lt;br&gt;class:string" style="shape=partialRectangle;html=1;whiteSpace=wrap;connectable=0;strokeColor=#ff0000;overflow=hidden;fillColor=#fff2cc;top=0;left=1;bottom=1;right=0;pointerEvents=1;fontSize=16;align=left;strokeWidth=2;" vertex="1" parent="9n2RkiRKGLW2JT2aB-Pe-40">
          <mxGeometry width="150" height="145" as="geometry">
            <mxRectangle width="150" height="145" as="alternateBounds" />
          </mxGeometry>
        </mxCell>
        <mxCell id="9n2RkiRKGLW2JT2aB-Pe-42" value="" style="shape=tableRow;horizontal=0;startSize=0;swimlaneHead=0;swimlaneBody=0;strokeColor=#ff0000;top=0;left=1;bottom=1;right=0;collapsible=0;dropTarget=0;fillColor=#fff2cc;points=[[0,0.5],[1,0.5]];portConstraint=eastwest;fontSize=16;strokeWidth=2;" vertex="1" parent="9n2RkiRKGLW2JT2aB-Pe-37">
          <mxGeometry y="170" width="150" height="20" as="geometry" />
        </mxCell>
        <mxCell id="9n2RkiRKGLW2JT2aB-Pe-43" value="" style="shape=partialRectangle;html=1;whiteSpace=wrap;connectable=0;strokeColor=#ff0000;overflow=hidden;fillColor=#fff2cc;top=0;left=1;bottom=1;right=0;pointerEvents=1;fontSize=16;strokeWidth=2;" vertex="1" parent="9n2RkiRKGLW2JT2aB-Pe-42">
          <mxGeometry width="150" height="20" as="geometry">
            <mxRectangle width="150" height="20" as="alternateBounds" />
          </mxGeometry>
        </mxCell>
        <mxCell id="9n2RkiRKGLW2JT2aB-Pe-44" value="" style="endArrow=diamondThin;html=1;rounded=0;endFill=1;entryX=0.533;entryY=1;entryDx=0;entryDy=0;entryPerimeter=0;endSize=13;strokeColor=#ff0000;" edge="1" parent="1" target="9n2RkiRKGLW2JT2aB-Pe-42">
          <mxGeometry width="50" height="50" relative="1" as="geometry">
            <mxPoint x="1724.636319247159" y="834.4545343572443" as="sourcePoint" />
            <mxPoint x="1654.636319247159" y="814.4545343572443" as="targetPoint" />
          </mxGeometry>
        </mxCell>
        <mxCell id="9n2RkiRKGLW2JT2aB-Pe-45" value="&lt;font style=&quot;font-size: 13px;&quot;&gt;1&lt;/font&gt;" style="text;html=1;align=center;verticalAlign=middle;resizable=0;points=[];autosize=1;strokeColor=none;fillColor=none;" vertex="1" parent="1">
          <mxGeometry x="1724.636319247159" y="684.4545343572443" width="30" height="30" as="geometry" />
        </mxCell>
        <mxCell id="9n2RkiRKGLW2JT2aB-Pe-46" value="" style="shape=table;startSize=0;container=1;collapsible=0;childLayout=tableLayout;fontSize=16;fillColor=#fff2cc;strokeColor=#FF0000;left=1;bottom=1;strokeWidth=2;" vertex="1" parent="1">
          <mxGeometry x="1664.636319247159" y="804.4545343572443" width="120" height="160" as="geometry" />
        </mxCell>
        <mxCell id="9n2RkiRKGLW2JT2aB-Pe-47" value="" style="shape=tableRow;horizontal=0;startSize=0;swimlaneHead=0;swimlaneBody=0;strokeColor=#FF0000;top=0;left=1;bottom=1;right=0;collapsible=0;dropTarget=0;fillColor=#fff2cc;points=[[0,0.5],[1,0.5]];portConstraint=eastwest;fontSize=16;strokeWidth=2;" vertex="1" parent="9n2RkiRKGLW2JT2aB-Pe-46">
          <mxGeometry width="120" height="30" as="geometry" />
        </mxCell>
        <mxCell id="9n2RkiRKGLW2JT2aB-Pe-48" value="studentcard" style="shape=partialRectangle;html=1;whiteSpace=wrap;connectable=0;strokeColor=#FF0000;overflow=hidden;fillColor=#fff2cc;top=0;left=1;bottom=1;right=0;pointerEvents=1;fontSize=16;strokeWidth=2;" vertex="1" parent="9n2RkiRKGLW2JT2aB-Pe-47">
          <mxGeometry width="120" height="30" as="geometry">
            <mxRectangle width="120" height="30" as="alternateBounds" />
          </mxGeometry>
        </mxCell>
        <mxCell id="9n2RkiRKGLW2JT2aB-Pe-49" value="" style="shape=tableRow;horizontal=0;startSize=0;swimlaneHead=0;swimlaneBody=0;strokeColor=#FF0000;top=0;left=1;bottom=1;right=0;collapsible=0;dropTarget=0;fillColor=#fff2cc;points=[[0,0.5],[1,0.5]];portConstraint=eastwest;fontSize=16;strokeWidth=2;" vertex="1" parent="9n2RkiRKGLW2JT2aB-Pe-46">
          <mxGeometry y="30" width="120" height="110" as="geometry" />
        </mxCell>
        <mxCell id="9n2RkiRKGLW2JT2aB-Pe-50" value="cardno:int&lt;br&gt;type:string&lt;br&gt;lscheck:string&lt;br&gt;status:string&lt;br&gt;cash:int" style="shape=partialRectangle;html=1;whiteSpace=wrap;connectable=0;strokeColor=#FF0000;overflow=hidden;fillColor=#fff2cc;top=0;left=1;bottom=1;right=0;pointerEvents=1;fontSize=16;strokeWidth=2;" vertex="1" parent="9n2RkiRKGLW2JT2aB-Pe-49">
          <mxGeometry width="120" height="110" as="geometry">
            <mxRectangle width="120" height="110" as="alternateBounds" />
          </mxGeometry>
        </mxCell>
        <mxCell id="9n2RkiRKGLW2JT2aB-Pe-51" value="" style="shape=tableRow;horizontal=0;startSize=0;swimlaneHead=0;swimlaneBody=0;strokeColor=#FF0000;top=0;left=1;bottom=1;right=0;collapsible=0;dropTarget=0;fillColor=#fff2cc;points=[[0,0.5],[1,0.5]];portConstraint=eastwest;fontSize=16;strokeWidth=2;" vertex="1" parent="9n2RkiRKGLW2JT2aB-Pe-46">
          <mxGeometry y="140" width="120" height="20" as="geometry" />
        </mxCell>
        <mxCell id="9n2RkiRKGLW2JT2aB-Pe-52" value="" style="shape=partialRectangle;html=1;whiteSpace=wrap;connectable=0;strokeColor=#FF0000;overflow=hidden;fillColor=#fff2cc;top=0;left=1;bottom=1;right=0;pointerEvents=1;fontSize=16;strokeWidth=2;" vertex="1" parent="9n2RkiRKGLW2JT2aB-Pe-51">
          <mxGeometry width="120" height="20" as="geometry">
            <mxRectangle width="120" height="20" as="alternateBounds" />
          </mxGeometry>
        </mxCell>
        <mxCell id="9n2RkiRKGLW2JT2aB-Pe-53" value="" style="endArrow=open;html=1;rounded=0;entryX=0;entryY=0.173;entryDx=0;entryDy=0;entryPerimeter=0;endFill=0;endSize=11;strokeColor=#ff0000;exitX=0.996;exitY=0.22;exitDx=0;exitDy=0;exitPerimeter=0;" edge="1" parent="1" source="9n2RkiRKGLW2JT2aB-Pe-16" target="9n2RkiRKGLW2JT2aB-Pe-49">
          <mxGeometry width="50" height="50" relative="1" as="geometry">
            <mxPoint x="1544.636319247159" y="853.4545343572443" as="sourcePoint" />
            <mxPoint x="1604.636319247159" y="724.4545343572443" as="targetPoint" />
          </mxGeometry>
        </mxCell>
        <mxCell id="9n2RkiRKGLW2JT2aB-Pe-54" value="&lt;font style=&quot;font-size: 14px;&quot;&gt;operation&lt;/font&gt;" style="edgeLabel;html=1;align=center;verticalAlign=middle;resizable=0;points=[];" connectable="0" vertex="1" parent="9n2RkiRKGLW2JT2aB-Pe-53">
          <mxGeometry x="0.4327" y="-3" relative="1" as="geometry">
            <mxPoint x="-34" y="-22" as="offset" />
          </mxGeometry>
        </mxCell>
        <mxCell id="9n2RkiRKGLW2JT2aB-Pe-55" value="" style="rounded=0;whiteSpace=wrap;html=1;fillColor=#fff2cc;strokeColor=#FF0000;" vertex="1" parent="1">
          <mxGeometry x="1904.636319247159" y="834.4545343572443" width="40" height="20" as="geometry" />
        </mxCell>
        <mxCell id="9n2RkiRKGLW2JT2aB-Pe-56" value="&lt;font style=&quot;font-size: 14px;&quot;&gt;Studentrecords&lt;/font&gt;&lt;br&gt;&lt;br&gt;&lt;br&gt;" style="rounded=0;whiteSpace=wrap;html=1;align=left;fillColor=#fff2cc;strokeColor=#FF0000;" vertex="1" parent="1">
          <mxGeometry x="1904.636319247159" y="854.4545343572443" width="100" height="60" as="geometry" />
        </mxCell>
        <mxCell id="9n2RkiRKGLW2JT2aB-Pe-57" value="" style="endArrow=open;html=1;rounded=0;exitX=0;exitY=0.5;exitDx=0;exitDy=0;entryX=1;entryY=0.5;entryDx=0;entryDy=0;endFill=0;dashed=1;strokeColor=#FF0000;" edge="1" parent="1" source="9n2RkiRKGLW2JT2aB-Pe-56" target="9n2RkiRKGLW2JT2aB-Pe-46">
          <mxGeometry width="50" height="50" relative="1" as="geometry">
            <mxPoint x="1804.636319247159" y="764.4545343572443" as="sourcePoint" />
            <mxPoint x="1854.636319247159" y="714.4545343572443" as="targetPoint" />
          </mxGeometry>
        </mxCell>
        <mxCell id="9n2RkiRKGLW2JT2aB-Pe-58" value="&lt;font style=&quot;font-size: 13px;&quot;&gt;1&lt;/font&gt;" style="text;html=1;align=center;verticalAlign=middle;resizable=0;points=[];autosize=1;strokeColor=none;fillColor=none;" vertex="1" parent="1">
          <mxGeometry x="1724.636319247159" y="774.4545343572443" width="30" height="30" as="geometry" />
        </mxCell>
      </root>
    </mxGraphModel>
  </diagram>
</mxfile>
